# xmcd CD database file
#
# Track frame offsets:
#	187
#	21972
#	45640
#	67400
#
# Disc length: 1213 seconds
#
# Revision: 0
# Processed by: cddbd v1.5.1PL0 Copyright (c) Steve Scherf et al.
# Submitted via: CDex 1.51
#
DISCID=3604bb04
DTITLE=高橋真梨子with玉置浩二 - 貴方が生きたLove Song
DYEAR=1992
DGENRE=JPop
TTITLE0=貴方が生きたLove Song
TTITLE1=夕暮れにルージュ
TTITLE2=貴方が生きたLove Song(カラオケ)
TTITLE3=夕暮れにルージュ(カラオケ)
EXTD=YEAR: 1992
EXTT0=
EXTT1=
EXTT2=
EXTT3=
PLAYORDER=
